<?xml version="1.0" standalone="no"?><!DOCTYPE svg PUBLIC "-//W3C//DTD SVG 1.1//EN" "http://www.w3.org/Graphics/SVG/1.1/DTD/svg11.dtd"><svg t="1611541127068" class="icon" viewBox="0 0 1024 1024" version="1.1" xmlns="http://www.w3.org/2000/svg" p-id="3876" xmlns:xlink="http://www.w3.org/1999/xlink" width="200" height="200"><defs><style type="text/css"></style></defs><path d="M857.088 96.768H172.032c-49.152 0-89.6 40.448-89.6 89.6v650.752c0 49.152 40.448 89.6 89.6 89.6h685.568c49.152 0 89.6-40.448 89.6-89.6V186.368c-0.512-49.152-40.448-89.6-90.112-89.6z m-685.056 56.32h685.568c18.432 0 33.28 14.848 33.28 33.28V307.2H138.752V186.368c0-17.92 14.848-33.28 33.28-33.28z m685.056 717.824H172.032c-18.432 0-33.28-14.848-33.28-33.28V363.52H890.88v473.6c-0.512 18.432-15.36 33.792-33.792 33.792z" p-id="3877" fill="#ffffff"></path><path d="M219.648 262.656H256c15.36 0 28.16-12.8 28.16-28.16S271.36 206.336 256 206.336h-36.864c-15.36 0-28.16 12.8-28.16 28.16s12.8 28.16 28.672 28.16zM357.888 262.656H394.24c15.36 0 28.16-12.8 28.16-28.16S409.6 206.336 394.24 206.336h-36.864c-15.36 0-28.16 12.8-28.16 28.16s12.8 28.16 28.672 28.16zM495.616 262.656h36.864c15.36 0 28.16-12.8 28.16-28.16s-12.8-28.16-28.16-28.16h-36.864c-15.36 0-28.16 12.8-28.16 28.16s12.8 28.16 28.16 28.16zM208.896 631.808l201.216 91.136V670.72l-142.848-62.976 142.848-63.488V492.032l-201.216 91.136zM454.144 755.2h50.688l64.512-286.72h-51.2zM619.008 544.256l142.848 63.488-142.848 62.976v52.224l201.216-91.136v-48.64l-201.216-91.136z" p-id="3878" fill="#ffffff"></path></svg>